<?xml version="1.0" encoding="UTF-8"?> <svg xmlns="http://www.w3.org/2000/svg" xmlns:xlink="http://www.w3.org/1999/xlink" version="1.1" id="Layer_1" x="0px" y="0px" viewBox="0 0 365 267" style="enable-background:new 0 0 365 267;" xml:space="preserve"> <style type="text/css"> .st0{clip-path:url(#SVGID_00000029039055751620054860000013911318562511640465_);fill:url(#SVGID_00000065792080178375819530000010634483743135278254_);} .st1{clip-path:url(#SVGID_00000029039055751620054860000013911318562511640465_);fill:url(#SVGID_00000109014798844119624190000016540339648885498777_);} .st2{clip-path:url(#SVGID_00000029039055751620054860000013911318562511640465_);fill:url(#SVGID_00000061438766299692860200000008848384968851510965_);} .st3{clip-path:url(#SVGID_00000029039055751620054860000013911318562511640465_);fill:url(#SVGID_00000054263268854173597890000010148740232791072190_);} .st4{clip-path:url(#SVGID_00000029039055751620054860000013911318562511640465_);fill:url(#SVGID_00000180338490966192286850000017883123895612583607_);} .st5{clip-path:url(#SVGID_00000029039055751620054860000013911318562511640465_);fill:url(#SVGID_00000090295956316353278100000016243571872952248448_);} .st6{clip-path:url(#SVGID_00000029039055751620054860000013911318562511640465_);fill:url(#SVGID_00000004534859477429528260000016795278794665174183_);} .st7{clip-path:url(#SVGID_00000029039055751620054860000013911318562511640465_);fill:url(#SVGID_00000086664194366738813370000003781487134810006930_);} .st8{clip-path:url(#SVGID_00000029039055751620054860000013911318562511640465_);fill:url(#SVGID_00000048493485266896177670000008506934887296404629_);} .st9{clip-path:url(#SVGID_00000029039055751620054860000013911318562511640465_);fill:url(#SVGID_00000067232446176490959510000007382264528559374219_);} .st10{clip-path:url(#SVGID_00000029039055751620054860000013911318562511640465_);fill:url(#SVGID_00000062162253964263608870000012583411894458335619_);} .st11{clip-path:url(#SVGID_00000029039055751620054860000013911318562511640465_);fill:url(#SVGID_00000105399238550328524220000013512388751966510221_);} .st12{clip-path:url(#SVGID_00000029039055751620054860000013911318562511640465_);fill:url(#SVGID_00000023274686038650358990000000955479022512029086_);} </style> <g> <defs> <rect id="SVGID_1_" width="365" height="267"></rect> </defs> <clipPath id="SVGID_00000119838065307313157440000016817858935528646050_"> <use xlink:href="#SVGID_1_" style="overflow:visible;"></use> </clipPath> <linearGradient id="SVGID_00000031179550754317977930000006695736337579062170_" gradientUnits="userSpaceOnUse" x1="-156.4163" y1="-284.4693" x2="147.5838" y2="242.0738" gradientTransform="matrix(1 0 0 -1 0 269)"> <stop offset="0.5417" style="stop-color:#006FBA;stop-opacity:0"></stop> <stop offset="1" style="stop-color:#006FBA"></stop> </linearGradient> <path style="clip-path:url(#SVGID_00000119838065307313157440000016817858935528646050_);fill:url(#SVGID_00000031179550754317977930000006695736337579062170_);" d=" M-155.7,541.7c-2.9,5.1-1.2,11.5,3.9,14.4L146.9,38.7c2.9-5.1,1.2-11.5-3.9-14.4L-155.7,541.7z"></path> <linearGradient id="SVGID_00000023986442279162014750000011056307627326738563_" gradientUnits="userSpaceOnUse" x1="-189.2571" y1="-384.452" x2="114.7429" y2="142.091" gradientTransform="matrix(1 0 0 -1 0 269)"> <stop offset="0.5417" style="stop-color:#006FBA;stop-opacity:0"></stop> <stop offset="1" style="stop-color:#006FBA"></stop> </linearGradient> <path style="clip-path:url(#SVGID_00000119838065307313157440000016817858935528646050_);fill:url(#SVGID_00000023986442279162014750000011056307627326738563_);" d=" M-188.5,641.7c-2.9,5.1-1.2,11.5,3.9,14.4L114,138.7c2.9-5.1,1.2-11.5-3.9-14.4L-188.5,641.7z"></path> <linearGradient id="SVGID_00000129176151619019184640000017521077398493444238_" gradientUnits="userSpaceOnUse" x1="-93.109" y1="-261.0181" x2="210.8908" y2="265.5249" gradientTransform="matrix(1 0 0 -1 0 269)"> <stop offset="0.5417" style="stop-color:#006FBA;stop-opacity:0"></stop> <stop offset="1" style="stop-color:#006FBA"></stop> </linearGradient> <path style="clip-path:url(#SVGID_00000119838065307313157440000016817858935528646050_);fill:url(#SVGID_00000129176151619019184640000017521077398493444238_);" d=" M-92.4,518.2c-2.9,5.1-1.2,11.5,3.9,14.4L210.2,15.3c2.9-5.1,1.2-11.5-3.9-14.4L-92.4,518.2z"></path> <linearGradient id="SVGID_00000014605814750917249240000002953974855117509300_" gradientUnits="userSpaceOnUse" x1="-120.0319" y1="-350.752" x2="183.9677" y2="175.7916" gradientTransform="matrix(1 0 0 -1 0 269)"> <stop offset="0.5417" style="stop-color:#006FBA;stop-opacity:0"></stop> <stop offset="1" style="stop-color:#006FBA"></stop> </linearGradient> <path style="clip-path:url(#SVGID_00000119838065307313157440000016817858935528646050_);fill:url(#SVGID_00000014605814750917249240000002953974855117509300_);" d=" M-119.3,608c-2.9,5.1-1.2,11.5,3.9,14.4L183.3,105c2.9-5.1,1.2-11.5-3.9-14.4L-119.3,608z"></path> <linearGradient id="SVGID_00000021092793602618179260000014422857482255106435_" gradientUnits="userSpaceOnUse" x1="-119.9762" y1="-393.757" x2="184.0239" y2="132.787" gradientTransform="matrix(1 0 0 -1 0 269)"> <stop offset="0.5417" style="stop-color:#006FBA;stop-opacity:0"></stop> <stop offset="1" style="stop-color:#006FBA"></stop> </linearGradient> <path style="clip-path:url(#SVGID_00000119838065307313157440000016817858935528646050_);fill:url(#SVGID_00000021092793602618179260000014422857482255106435_);" d=" M-119.3,651c-2.9,5.1-1.2,11.5,3.9,14.4L183.3,148c2.9-5.1,1.2-11.5-3.9-14.4L-119.3,651z"></path> <linearGradient id="SVGID_00000164477976059497553840000004381600094732299648_" gradientUnits="userSpaceOnUse" x1="-51.1383" y1="-317.627" x2="252.8618" y2="208.9166" gradientTransform="matrix(1 0 0 -1 0 269)"> <stop offset="0.5417" style="stop-color:#006FBA;stop-opacity:0"></stop> <stop offset="1" style="stop-color:#006FBA"></stop> </linearGradient> <path style="clip-path:url(#SVGID_00000119838065307313157440000016817858935528646050_);fill:url(#SVGID_00000164477976059497553840000004381600094732299648_);" d=" M-50.4,574.8c-2.9,5.1-1.2,11.5,3.9,14.4L252.2,71.9c2.9-5.1,1.2-11.5-3.9-14.4L-50.4,574.8z"></path> <linearGradient id="SVGID_00000129885788796367771440000011184056977421209248_" gradientUnits="userSpaceOnUse" x1="-44.437" y1="-349.1211" x2="259.5628" y2="177.4219" gradientTransform="matrix(1 0 0 -1 0 269)"> <stop offset="0.5417" style="stop-color:#006FBA;stop-opacity:0"></stop> <stop offset="1" style="stop-color:#006FBA"></stop> </linearGradient> <path style="clip-path:url(#SVGID_00000119838065307313157440000016817858935528646050_);fill:url(#SVGID_00000129885788796367771440000011184056977421209248_);" d=" M-43.7,606.3c-2.9,5.1-1.2,11.5,3.9,14.4l298.7-517.4c2.9-5.1,1.2-11.5-3.9-14.4L-43.7,606.3z"></path> <linearGradient id="SVGID_00000146473994548798226940000014462748711269189780_" gradientUnits="userSpaceOnUse" x1="-91.7916" y1="-474.243" x2="212.2088" y2="52.3001" gradientTransform="matrix(1 0 0 -1 0 269)"> <stop offset="0.5417" style="stop-color:#006FBA;stop-opacity:0"></stop> <stop offset="1" style="stop-color:#006FBA"></stop> </linearGradient> <path style="clip-path:url(#SVGID_00000119838065307313157440000016817858935528646050_);fill:url(#SVGID_00000146473994548798226940000014462748711269189780_);" d=" M-91.1,731.4c-2.9,5.1-1.2,11.5,3.9,14.4l298.7-517.4c2.9-5.1,1.2-11.5-3.9-14.4L-91.1,731.4z"></path> <linearGradient id="SVGID_00000044161954719397082910000004556517334162644891_" gradientUnits="userSpaceOnUse" x1="-34.0789" y1="-417.3845" x2="269.9205" y2="109.1593" gradientTransform="matrix(1 0 0 -1 0 269)"> <stop offset="0.5417" style="stop-color:#006FBA;stop-opacity:0"></stop> <stop offset="1" style="stop-color:#006FBA"></stop> </linearGradient> <path style="clip-path:url(#SVGID_00000119838065307313157440000016817858935528646050_);fill:url(#SVGID_00000044161954719397082910000004556517334162644891_);" d=" M-33.4,674.6c-2.9,5.1-1.2,11.5,3.9,14.4l298.7-517.4c2.9-5.1,1.2-11.5-3.9-14.4L-33.4,674.6z"></path> <linearGradient id="SVGID_00000163032845873381964640000010902091454748873875_" gradientUnits="userSpaceOnUse" x1="41.5349" y1="-329.5171" x2="345.5349" y2="197.0264" gradientTransform="matrix(1 0 0 -1 0 269)"> <stop offset="0.5417" style="stop-color:#006FBA;stop-opacity:0"></stop> <stop offset="1" style="stop-color:#006FBA"></stop> </linearGradient> <path style="clip-path:url(#SVGID_00000119838065307313157440000016817858935528646050_);fill:url(#SVGID_00000163032845873381964640000010902091454748873875_);" d=" M42.2,586.7c-2.9,5.1-1.2,11.5,3.9,14.4L344.8,83.8c2.9-5.1,1.2-11.5-3.9-14.4L42.2,586.7z"></path> <linearGradient id="SVGID_00000069385827054700614250000013114475137286797185_" gradientUnits="userSpaceOnUse" x1="18.8295" y1="-411.9441" x2="322.8299" y2="114.5991" gradientTransform="matrix(1 0 0 -1 0 269)"> <stop offset="0.5417" style="stop-color:#006FBA;stop-opacity:0"></stop> <stop offset="1" style="stop-color:#006FBA"></stop> </linearGradient> <path style="clip-path:url(#SVGID_00000119838065307313157440000016817858935528646050_);fill:url(#SVGID_00000069385827054700614250000013114475137286797185_);" d=" M19.5,669.2c-2.9,5.1-1.2,11.5,3.9,14.4l298.7-517.4c2.9-5.1,1.2-11.5-3.9-14.4L19.5,669.2z"></path> <linearGradient id="SVGID_00000031180898380514001590000014567140319556735163_" gradientUnits="userSpaceOnUse" x1="58.5159" y1="-386.307" x2="362.5159" y2="140.236" gradientTransform="matrix(1 0 0 -1 0 269)"> <stop offset="0.5417" style="stop-color:#006FBA;stop-opacity:0"></stop> <stop offset="1" style="stop-color:#006FBA"></stop> </linearGradient> <path style="clip-path:url(#SVGID_00000119838065307313157440000016817858935528646050_);fill:url(#SVGID_00000031180898380514001590000014567140319556735163_);" d=" M59.2,643.5c-2.9,5.1-1.2,11.5,3.9,14.4l298.7-517.4c2.9-5.1,1.2-11.5-3.9-14.4L59.2,643.5z"></path> <linearGradient id="SVGID_00000129926435394342072410000001752868300257874863_" gradientUnits="userSpaceOnUse" x1="21.6879" y1="-493.1961" x2="325.6878" y2="33.3471" gradientTransform="matrix(1 0 0 -1 0 269)"> <stop offset="0.5417" style="stop-color:#006FBA;stop-opacity:0"></stop> <stop offset="1" style="stop-color:#006FBA"></stop> </linearGradient> <path style="clip-path:url(#SVGID_00000119838065307313157440000016817858935528646050_);fill:url(#SVGID_00000129926435394342072410000001752868300257874863_);" d=" M22.4,750.4c-2.9,5.1-1.2,11.5,3.9,14.4L325,247.4c2.9-5.1,1.2-11.5-3.9-14.4L22.4,750.4z"></path> </g> </svg> 