<?xml version="1.0" encoding="UTF-8"?> <svg xmlns="http://www.w3.org/2000/svg" xmlns:xlink="http://www.w3.org/1999/xlink" version="1.1" id="Layer_1" x="0px" y="0px" viewBox="0 0 90 131" style="enable-background:new 0 0 90 131;" xml:space="preserve"> <style type="text/css"> .st0{fill:#FFFFFF;filter:url(#Adobe_OpacityMaskFilter);} .st1{mask:url(#mask0_336_2476_00000074410097723815697150000000958799814529146269_);} .st2{fill:url(#SVGID_1_);} .st3{fill:url(#SVGID_00000038384790324442699910000001927138264972569771_);} .st4{fill:url(#SVGID_00000027599060362113962010000013872602882216847278_);} </style> <defs> <filter id="Adobe_OpacityMaskFilter" filterUnits="userSpaceOnUse" x="-165.3" y="-1.9" width="285.9" height="466.5"> <feColorMatrix type="matrix" values="1 0 0 0 0 0 1 0 0 0 0 0 1 0 0 0 0 0 1 0"></feColorMatrix> </filter> </defs> <mask maskUnits="userSpaceOnUse" x="-165.3" y="-1.9" width="285.9" height="466.5" id="mask0_336_2476_00000074410097723815697150000000958799814529146269_"> <rect x="-9.8" y="1" class="st0" width="100.8" height="130.3"></rect> </mask> <g class="st1"> <linearGradient id="SVGID_1_" gradientUnits="userSpaceOnUse" x1="-141.4218" y1="-259.5621" x2="74.9998" y2="115.2908" gradientTransform="matrix(1 0 0 -1 0 132)"> <stop offset="0.5417" style="stop-color:#006FBA;stop-opacity:0"></stop> <stop offset="1" style="stop-color:#006FBA"></stop> </linearGradient> <path class="st2" d="M-140.9,383.2c-2.1,3.6-0.8,8.2,2.8,10.3L74.5,25.1c2.1-3.6,0.8-8.2-2.8-10.3L-140.9,383.2z"></path> <linearGradient id="SVGID_00000147940604279919023380000006204688819438177965_" gradientUnits="userSpaceOnUse" x1="-164.8028" y1="-330.7411" x2="51.619" y2="44.1121" gradientTransform="matrix(1 0 0 -1 0 132)"> <stop offset="0.5417" style="stop-color:#006FBA;stop-opacity:0"></stop> <stop offset="1" style="stop-color:#006FBA"></stop> </linearGradient> <path style="fill:url(#SVGID_00000147940604279919023380000006204688819438177965_);" d="M-164.3,454.3c-2.1,3.6-0.8,8.2,2.8,10.3 L51.1,96.3c2.1-3.6,0.8-8.2-2.8-10.3L-164.3,454.3z"></path> <linearGradient id="SVGID_00000180343478129386574400000007223570218672809399_" gradientUnits="userSpaceOnUse" x1="-96.3519" y1="-242.8671" x2="120.0698" y2="131.9862" gradientTransform="matrix(1 0 0 -1 0 132)"> <stop offset="0.5417" style="stop-color:#006FBA;stop-opacity:0"></stop> <stop offset="1" style="stop-color:#006FBA"></stop> </linearGradient> <path style="fill:url(#SVGID_00000180343478129386574400000007223570218672809399_);" d="M-95.8,366.5c-2.1,3.6-0.8,8.2,2.8,10.3 L119.6,8.4c2.1-3.6,0.8-8.2-2.8-10.3L-95.8,366.5z"></path> </g> </svg> 