<?xml version="1.0" encoding="UTF-8"?><svg id="Layer_2" xmlns="http://www.w3.org/2000/svg" viewBox="0 0 468.32 90.09"><defs><style>.cls-1{fill:#006fba;}.cls-2{fill:#008bb0;}.cls-3{fill:#00a160;}.cls-4{fill:#54b948;}</style></defs><g id="CPA_Signature"><g><path class="cls-1" d="m177.89,76.11c-2.33-9.66-9.06-31.87-13.18-39.47-.08-.14-.22-.23-.37-.23h-14.86c-.16,0-.3.09-.38.23-4.02,7.64-10.96,30.22-13.18,39.47,0,.04-.01.07-.01.1v2.23c0,.24.19.42.43.42h11.33c.2,0,.36-.13.4-.33.23-.92.45-1.92.71-2.98.36-1.54.75-3.55,1.17-5.25h13.16c.36,1.51.67,3.32.98,4.74.27,1.25.52,2.43.77,3.49.05.19.22.33.41.33h12.21c.23,0,.43-.19.43-.42v-2.23s0-.06-.01-.1m-25.89-14.76c.58-2.33,4.49-15.26,4.49-15.26h.41s3.72,12.94,4.24,15.26h-9.14Z"/><path class="cls-1" d="m114.51,35.97c-7.4,0-12.79,1.11-14.87,2.14-.13.06-.45.26-.45.58v50.97c0,.24.19.42.43.42h12.09c.23,0,.42-.19.42-.42v-10.8h5.86c11.37,0,16.89-10.08,16.89-21.29,0-14.13-7.17-21.61-20.37-21.61m1.1,33.29h-3.48v-23.35h3.69c5.32,0,6.07,5.82,6.07,11.66s-.75,11.69-6.28,11.69"/><path class="cls-1" d="m81.48,45.92c4.21,0,7.69,3.1,7.69,3.1.03,0,.07.01.11.01h3.72c.23,0,.42-.19.42-.43v-9.32c0-.17-.11-.31-.26-.39-2.43-1.35-8.5-2.93-13.67-2.93-13.44,0-21.14,9.35-21.14,21.67,0,12.32,8.12,21.67,21.14,21.67,5.26,0,11.25-1.64,13.67-2.93.15-.08.26-.23.26-.39v-9.32c0-.23-.19-.43-.42-.43h-3.72s-.07,0-.11.01c0,0-3.47,3.1-7.69,3.1-7.02,0-9.82-5.86-9.82-11.72,0-5.86,2.81-11.72,9.82-11.72"/><g><path class="cls-1" d="m28,45.25c-1.37,0-2.48,1.11-2.48,2.48,0,1.37,1.11,2.47,2.48,2.47s2.48-1.1,2.48-2.47c0-1.37-1.11-2.48-2.48-2.48Zm0,6.27c-1.07,0-1.94.87-1.94,1.94,0,1.07.87,1.94,1.94,1.94s1.94-.87,1.94-1.94-.87-1.94-1.94-1.94Zm6.17-18.51c-.95,0-1.79.41-2.38,1.07-.31-.57-.74-1.05-1.25-1.43.55-.61.88-1.41.88-2.28,0-1.37-.8-2.54-1.96-3.09.94-.52,1.58-1.52,1.58-2.67,0-1.68-1.36-3.04-3.04-3.04s-3.04,1.36-3.04,3.04c0,1.15.64,2.15,1.58,2.67-1.15.55-1.96,1.72-1.96,3.09,0,.88.33,1.68.88,2.28-.52.38-.95.87-1.25,1.43-.58-.65-1.43-1.07-2.38-1.07-1.76,0-3.19,1.43-3.19,3.19,0,1.76,1.43,3.19,3.19,3.19.98,0,1.86-.44,2.44-1.14.31.54.73,1,1.23,1.36-.55.6-.89,1.4-.89,2.27,0,1.86,1.5,3.37,3.36,3.37s3.37-1.51,3.37-3.37c0-.87-.33-1.66-.88-2.26.51-.36.94-.83,1.25-1.37.58.7,1.46,1.14,2.44,1.14,1.76,0,3.19-1.43,3.19-3.19,0-1.76-1.43-3.19-3.19-3.19Zm-6.17,24.83c-.76,0-1.38.62-1.38,1.38s.62,1.38,1.38,1.38,1.38-.62,1.38-1.38c0-.76-.62-1.38-1.38-1.38Zm0,6.11c-.57,0-1.04.47-1.04,1.04,0,.58.47,1.04,1.04,1.04s1.04-.46,1.04-1.04c0-.57-.47-1.04-1.04-1.04Zm12.29-30.39c-1.61,0-2.92,1.31-2.92,2.92,0,1.61,1.31,2.92,2.92,2.92s2.92-1.31,2.92-2.92-1.31-2.92-2.92-2.92Zm-24.57,0c-1.61,0-2.92,1.31-2.92,2.92,0,1.61,1.31,2.92,2.92,2.92s2.92-1.31,2.92-2.92-1.31-2.92-2.92-2.92Z"/><path class="cls-1" d="m28,21.52c1.47,0,2.67-1.19,2.67-2.67s-1.19-2.67-2.67-2.67-2.67,1.19-2.67,2.67,1.19,2.67,2.67,2.67Z"/><path class="cls-1" d="m46.39,34.49c-1.34,0-2.43,1.09-2.43,2.43s1.09,2.43,2.43,2.43,2.43-1.09,2.43-2.43-1.09-2.43-2.43-2.43Z"/><path class="cls-1" d="m12.05,36.92c0-1.34-1.09-2.43-2.43-2.43s-2.43,1.09-2.43,2.43c0,1.35,1.09,2.43,2.43,2.43s2.43-1.09,2.43-2.43Z"/></g><g><path class="cls-2" d="m34.51,22.07c-1.45,0-2.63,1.18-2.63,2.63s1.17,2.63,2.62,2.63,2.63-1.18,2.63-2.63-1.18-2.63-2.63-2.63Z"/><path class="cls-2" d="m34.34,27.62c-1.57,0-2.84,1.27-2.84,2.84s1.27,2.84,2.84,2.84,2.84-1.27,2.84-2.84c0-1.57-1.27-2.84-2.84-2.84Z"/><path class="cls-2" d="m34,39.31c-1.48,0-2.69,1.2-2.69,2.69,0,1.49,1.2,2.69,2.69,2.69s2.69-1.2,2.69-2.69c0-1.49-1.2-2.69-2.69-2.69Z"/><path class="cls-2" d="m33.83,44.92c-1.58,0-2.87,1.29-2.87,2.87,0,1.58,1.28,2.87,2.87,2.87s2.87-1.29,2.87-2.87c0-1.59-1.28-2.87-2.87-2.87Z"/><path class="cls-2" d="m40.63,28.03c-1.49,0-2.7,1.21-2.7,2.7s1.21,2.7,2.7,2.7,2.69-1.21,2.69-2.7-1.2-2.7-2.69-2.7Z"/><path class="cls-2" d="m21.5,22.07c-1.45,0-2.63,1.18-2.63,2.63s1.17,2.63,2.62,2.63,2.63-1.18,2.63-2.63-1.18-2.63-2.63-2.63Z"/><path class="cls-2" d="m21.67,27.62c-1.57,0-2.84,1.27-2.84,2.84,0,1.57,1.27,2.84,2.84,2.84s2.84-1.27,2.84-2.84c0-1.57-1.27-2.84-2.84-2.84Z"/><path class="cls-2" d="m22.01,39.31c-1.49,0-2.69,1.2-2.69,2.69,0,1.49,1.2,2.69,2.69,2.69s2.69-1.2,2.69-2.69c0-1.49-1.21-2.69-2.69-2.69Z"/><path class="cls-2" d="m22.18,44.92c-1.59,0-2.87,1.29-2.87,2.87,0,1.58,1.28,2.87,2.87,2.87s2.87-1.29,2.87-2.87c0-1.59-1.29-2.87-2.87-2.87Z"/><path class="cls-2" d="m15.38,28.03c-1.49,0-2.7,1.21-2.7,2.7s1.21,2.7,2.7,2.7,2.7-1.21,2.7-2.7-1.21-2.7-2.7-2.7Z"/><path class="cls-2" d="m21.33,21.48c1.4,0,2.53-1.13,2.53-2.53s-1.13-2.53-2.53-2.53-2.53,1.13-2.53,2.53,1.13,2.53,2.53,2.53Z"/><path class="cls-2" d="m13.66,42.26c0,1.33,1.08,2.41,2.41,2.41s2.41-1.08,2.41-2.41-1.08-2.41-2.41-2.41-2.41,1.08-2.41,2.41Z"/><path class="cls-2" d="m34.68,21.48c1.4,0,2.53-1.13,2.53-2.53,0-1.4-1.13-2.53-2.53-2.53s-2.53,1.13-2.53,2.53,1.13,2.53,2.53,2.53Z"/><path class="cls-2" d="m28,15.45c1.32,0,2.39-1.07,2.39-2.39,0-1.32-1.07-2.39-2.39-2.39s-2.39,1.07-2.39,2.39,1.07,2.39,2.39,2.39Z"/><path class="cls-2" d="m39.95,44.67c1.33,0,2.41-1.08,2.41-2.41,0-1.33-1.08-2.41-2.41-2.41s-2.41,1.08-2.41,2.41c0,1.33,1.08,2.41,2.41,2.41Z"/></g><g><path class="cls-4" d="m16.74,52.16c-.9,0-1.63.73-1.63,1.63,0,.9.73,1.63,1.63,1.63s1.63-.73,1.63-1.63c0-.9-.73-1.63-1.63-1.63Z"/><path class="cls-4" d="m3.85,26.13c0-.93-.75-1.68-1.67-1.68s-1.67.75-1.67,1.68c0,.92.75,1.67,1.67,1.67s1.67-.75,1.67-1.67Z"/><path class="cls-4" d="m8.1,21.36c.9,0,1.62-.73,1.62-1.62,0-.9-.73-1.62-1.62-1.62s-1.62.73-1.62,1.62.73,1.62,1.62,1.62Z"/><path class="cls-4" d="m1.5,21.9c.83,0,1.49-.67,1.49-1.49s-.67-1.5-1.49-1.5S0,19.58,0,20.4s.67,1.49,1.5,1.49Z"/><path class="cls-4" d="m34.85,15.17c1.11,0,2.02-.9,2.02-2.02,0-1.12-.91-2.02-2.02-2.02s-2.02.91-2.02,2.02c0,1.12.9,2.02,2.02,2.02Z"/><path class="cls-4" d="m21.16,15.17c1.11,0,2.02-.9,2.02-2.02,0-1.12-.9-2.02-2.02-2.02s-2.02.91-2.02,2.02.9,2.02,2.02,2.02Z"/><path class="cls-4" d="m28,3.1c.86,0,1.55-.69,1.55-1.55,0-.85-.69-1.55-1.55-1.55s-1.55.7-1.55,1.55c0,.86.69,1.55,1.55,1.55Z"/><path class="cls-4" d="m35.02,8.87c.81,0,1.47-.66,1.47-1.47,0-.81-.66-1.47-1.47-1.47s-1.47.66-1.47,1.47c0,.81.66,1.47,1.47,1.47Z"/><path class="cls-4" d="m20.99,8.87c.81,0,1.47-.66,1.47-1.47,0-.81-.66-1.47-1.47-1.47s-1.47.66-1.47,1.47.66,1.47,1.47,1.47Z"/><path class="cls-4" d="m54.51,21.9c.82,0,1.5-.67,1.5-1.49s-.67-1.5-1.5-1.5-1.49.67-1.49,1.5.67,1.49,1.49,1.49Z"/><path class="cls-4" d="m44.86,53.02c-.66,0-1.19.53-1.19,1.19s.53,1.19,1.19,1.19,1.19-.53,1.19-1.19-.53-1.19-1.19-1.19Z"/><path class="cls-4" d="m37.63,53.79c0,.9.73,1.63,1.64,1.63s1.63-.73,1.63-1.63c0-.9-.73-1.63-1.63-1.63s-1.64.73-1.64,1.63Z"/><path class="cls-4" d="m53.84,24.45c-.92,0-1.67.75-1.67,1.68,0,.92.75,1.67,1.67,1.67s1.68-.75,1.68-1.67c0-.93-.75-1.68-1.68-1.68Z"/><path class="cls-4" d="m47.41,23.19c-1.25,0-2.26,1.01-2.26,2.26,0,1.25,1.01,2.26,2.26,2.26s2.26-1.01,2.26-2.26c0-1.25-1.01-2.26-2.26-2.26Z"/><path class="cls-4" d="m11.15,53.02c-.66,0-1.19.53-1.19,1.19s.53,1.19,1.19,1.19,1.19-.53,1.19-1.19-.53-1.19-1.19-1.19Z"/><path class="cls-4" d="m47.91,21.36c.89,0,1.62-.73,1.62-1.62s-.73-1.62-1.62-1.62-1.62.73-1.62,1.62.72,1.62,1.62,1.62Z"/><path class="cls-4" d="m8.6,27.72c1.25,0,2.26-1.01,2.26-2.26,0-1.25-1.01-2.26-2.26-2.26s-2.26,1.01-2.26,2.26c0,1.25,1.01,2.26,2.26,2.26Z"/></g><g><path class="cls-3" d="m16.41,45.95c-1.17,0-2.13.95-2.13,2.12s.95,2.13,2.13,2.13,2.12-.95,2.12-2.12-.95-2.12-2.12-2.12Z"/><path class="cls-3" d="m15.04,27.11c1.18,0,2.13-.95,2.13-2.13s-.95-2.13-2.13-2.13-2.13.95-2.13,2.13.95,2.13,2.13,2.13Z"/><path class="cls-3" d="m3.52,36.13c-.78,0-1.42.64-1.42,1.42s.64,1.42,1.42,1.42,1.42-.64,1.42-1.42-.64-1.42-1.42-1.42Z"/><path class="cls-3" d="m28,9.27c1.09,0,1.97-.88,1.97-1.97,0-1.09-.88-1.97-1.97-1.97s-1.97.88-1.97,1.97.88,1.97,1.97,1.97Z"/><path class="cls-3" d="m45.88,40.86c-1.02,0-1.84.83-1.84,1.84s.82,1.84,1.84,1.84,1.84-.82,1.84-1.84-.82-1.84-1.84-1.84Z"/><path class="cls-3" d="m46.9,28.77c-1.34,0-2.42,1.08-2.42,2.42s1.08,2.42,2.42,2.42,2.42-1.09,2.42-2.42c0-1.34-1.08-2.42-2.42-2.42Z"/><path class="cls-3" d="m52.49,36.13c-.79,0-1.42.64-1.42,1.42s.64,1.42,1.42,1.42,1.42-.64,1.42-1.42-.64-1.42-1.42-1.42Z"/><path class="cls-3" d="m40.96,27.11c1.17,0,2.13-.95,2.13-2.13s-.95-2.13-2.13-2.13-2.13.95-2.13,2.13.95,2.13,2.13,2.13Z"/><path class="cls-3" d="m11.97,42.7c0-1.02-.83-1.84-1.84-1.84s-1.84.83-1.84,1.84.83,1.84,1.84,1.84,1.84-.82,1.84-1.84Z"/><path class="cls-3" d="m9.11,33.62c1.34,0,2.42-1.09,2.42-2.42s-1.08-2.42-2.42-2.42-2.42,1.08-2.42,2.42,1.09,2.42,2.42,2.42Z"/><path class="cls-3" d="m39.6,50.2c1.17,0,2.12-.95,2.12-2.12s-.95-2.12-2.12-2.12-2.13.95-2.13,2.12.95,2.13,2.12,2.13Z"/></g></g><g><path class="cls-1" d="m195.7,36.48h4.37c1.23,0,2.2.36,2.83.98.52.53.81,1.26.81,2.11v.03c0,1.61-.96,2.57-2.32,2.97l2.64,3.71h-2.04l-2.41-3.41h-2.15v3.41h-1.72v-9.79Zm4.24,4.85c1.23,0,2.01-.64,2.01-1.64v-.03c0-1.05-.76-1.62-2.03-1.62h-2.5v3.29h2.52Z"/><path class="cls-1" d="m205.55,36.48h7.26v1.54h-5.54v2.55h4.91v1.54h-4.91v2.63h5.61v1.54h-7.33v-9.79Zm4.53-2.84l1.54.67-1.79,1.36h-1.32l1.57-2.03Z"/><path class="cls-1" d="m214.23,41.4v-.03c0-2.74,2.1-5.06,5.05-5.06,1.71,0,2.76.48,3.76,1.33l-1.09,1.3c-.75-.64-1.5-1.05-2.74-1.05-1.8,0-3.18,1.58-3.18,3.46v.03c0,2.02,1.33,3.5,3.33,3.5.92,0,1.76-.29,2.36-.74v-1.83h-2.5v-1.5h4.17v4.11c-.96.83-2.35,1.53-4.09,1.53-3.06,0-5.08-2.18-5.08-5.04Z"/><path class="cls-1" d="m225.48,36.48h1.72v9.79h-1.72v-9.79Z"/><path class="cls-1" d="m229.55,36.48h1.83l2.98,4.63,2.98-4.63h1.83v9.79h-1.72v-7.02l-3.09,4.62h-.06l-3.06-4.59v7h-1.69v-9.79Z"/><path class="cls-1" d="m241.44,36.48h7.26v1.54h-5.54v2.55h4.91v1.54h-4.91v2.63h5.61v1.54h-7.33v-9.79Z"/><path class="cls-1" d="m254.05,41.4v-.03c0-2.78,2.08-5.06,5.05-5.06,1.8,0,2.9.63,3.83,1.52l-1.11,1.27c-.78-.73-1.62-1.22-2.74-1.22-1.86,0-3.23,1.54-3.23,3.46v.03c0,1.92,1.36,3.47,3.23,3.47,1.2,0,1.97-.48,2.81-1.26l1.11,1.12c-1.02,1.06-2.14,1.74-3.97,1.74-2.85,0-4.98-2.22-4.98-5.04Z"/><path class="cls-1" d="m264.11,41.4v-.03c0-2.76,2.13-5.06,5.14-5.06s5.11,2.28,5.11,5.04v.03c0,2.76-2.13,5.07-5.14,5.07s-5.11-2.28-5.11-5.04Zm8.44,0v-.03c0-1.9-1.38-3.48-3.33-3.48s-3.3,1.55-3.3,3.46v.03c0,1.9,1.38,3.47,3.33,3.47s3.3-1.54,3.3-3.44Z"/><path class="cls-1" d="m276.45,36.48h1.72v8.23h5.15v1.57h-6.87v-9.79Z"/><path class="cls-1" d="m285.11,36.48h1.72v8.23h5.15v1.57h-6.87v-9.79Z"/><path class="cls-1" d="m293.78,36.48h7.26v1.54h-5.54v2.55h4.91v1.54h-4.91v2.63h5.61v1.54h-7.33v-9.79Z"/><path class="cls-1" d="m302.72,41.4v-.03c0-2.78,2.08-5.06,5.05-5.06,1.8,0,2.9.63,3.83,1.52l-1.11,1.27c-.78-.73-1.62-1.22-2.74-1.22-1.86,0-3.23,1.54-3.23,3.46v.03c0,1.92,1.36,3.47,3.23,3.47,1.2,0,1.97-.48,2.81-1.26l1.11,1.12c-1.02,1.06-2.14,1.74-3.97,1.74-2.85,0-4.98-2.22-4.98-5.04Z"/><path class="cls-1" d="m315.9,38.07h-3.11v-1.59h7.95v1.59h-3.11v8.2h-1.74v-8.2Z"/><path class="cls-1" d="m322.66,36.48h1.72v9.79h-1.72v-9.79Z"/><path class="cls-1" d="m327,36.48h7.29v1.57h-5.57v2.67h4.94v1.57h-4.94v3.99h-1.72v-9.79Z"/><path class="cls-1" d="m340.38,36.48h3.65c3.08,0,5.21,2.11,5.21,4.87v.03c0,2.76-2.13,4.9-5.21,4.9h-3.65v-9.79Zm1.72,1.57v6.66h1.93c2.06,0,3.4-1.38,3.4-3.3v-.03c0-1.92-1.34-3.33-3.4-3.33h-1.93Z"/><path class="cls-1" d="m350.62,39.71c.85-.15,1.26-.59,1.2-1.31h-.73v-1.92h1.86v1.64c0,1.55-.74,2.21-2.16,2.32l-.18-.73Z"/><path class="cls-1" d="m358.57,36.41h1.59l4.31,9.86h-1.82l-.99-2.36h-4.63l-1.01,2.36h-1.76l4.31-9.86Zm2.46,5.98l-1.69-3.92-1.68,3.92h3.37Z"/><path class="cls-1" d="m365.5,44.85l1.04-1.23c.94.81,1.89,1.27,3.09,1.27,1.06,0,1.74-.5,1.74-1.23v-.03c0-.7-.39-1.08-2.21-1.5-2.08-.5-3.26-1.12-3.26-2.92v-.03c0-1.68,1.4-2.84,3.34-2.84,1.43,0,2.56.43,3.55,1.23l-.92,1.3c-.88-.66-1.76-1.01-2.66-1.01-1.01,0-1.59.52-1.59,1.16v.03c0,.76.45,1.09,2.34,1.54,2.07.5,3.13,1.25,3.13,2.87v.03c0,1.83-1.44,2.92-3.5,2.92-1.5,0-2.91-.52-4.09-1.57Z"/><path class="cls-1" d="m374.46,44.85l1.04-1.23c.94.81,1.89,1.27,3.09,1.27,1.06,0,1.74-.5,1.74-1.23v-.03c0-.7-.39-1.08-2.21-1.5-2.08-.5-3.26-1.12-3.26-2.92v-.03c0-1.68,1.4-2.84,3.34-2.84,1.43,0,2.56.43,3.55,1.23l-.92,1.3c-.88-.66-1.76-1.01-2.66-1.01-1.01,0-1.59.52-1.59,1.16v.03c0,.76.45,1.09,2.34,1.54,2.07.5,3.13,1.25,3.13,2.87v.03c0,1.83-1.44,2.92-3.5,2.92-1.5,0-2.91-.52-4.09-1.57Z"/><path class="cls-1" d="m383.92,42.12v-5.64h1.72v5.57c0,1.82.94,2.78,2.48,2.78s2.46-.91,2.46-2.71v-5.64h1.72v5.55c0,2.92-1.65,4.39-4.21,4.39s-4.17-1.47-4.17-4.31Z"/><path class="cls-1" d="m394.67,36.48h4.37c1.23,0,2.2.36,2.83.98.52.53.81,1.26.81,2.11v.03c0,1.61-.96,2.57-2.32,2.97l2.64,3.71h-2.04l-2.41-3.41h-2.15v3.41h-1.72v-9.79Zm4.24,4.85c1.23,0,2.01-.64,2.01-1.64v-.03c0-1.05-.76-1.62-2.03-1.62h-2.5v3.29h2.52Z"/><path class="cls-1" d="m408.26,36.41h1.59l4.31,9.86h-1.82l-.99-2.36h-4.63l-1.01,2.36h-1.76l4.31-9.86Zm2.46,5.98l-1.69-3.92-1.68,3.92h3.37Z"/><path class="cls-1" d="m415.85,36.48h1.59l5.25,6.77v-6.77h1.69v9.79h-1.44l-5.4-6.97v6.97h-1.69v-9.79Z"/><path class="cls-1" d="m426.25,41.4v-.03c0-2.78,2.08-5.06,5.05-5.06,1.8,0,2.9.63,3.83,1.52l-1.11,1.27c-.78-.73-1.62-1.22-2.74-1.22-1.86,0-3.23,1.54-3.23,3.46v.03c0,1.92,1.36,3.47,3.23,3.47,1.2,0,1.97-.48,2.81-1.26l1.11,1.12c-1.02,1.06-2.14,1.74-3.97,1.74-2.85,0-4.98-2.22-4.98-5.04Z"/><path class="cls-1" d="m437.02,36.48h7.26v1.54h-5.54v2.55h4.91v1.54h-4.91v2.63h5.61v1.54h-7.33v-9.79Z"/><path class="cls-1" d="m195.7,52.82h4.37c1.23,0,2.2.36,2.83.98.52.53.81,1.26.81,2.11v.03c0,1.61-.96,2.57-2.32,2.97l2.64,3.71h-2.04l-2.41-3.41h-2.15v3.41h-1.72v-9.79Zm4.24,4.85c1.23,0,2.01-.64,2.01-1.64v-.03c0-1.05-.76-1.62-2.03-1.62h-2.5v3.29h2.52Z"/><path class="cls-1" d="m205.82,52.82h7.26v1.54h-5.54v2.55h4.91v1.54h-4.91v2.63h5.61v1.54h-7.33v-9.79Z"/><path class="cls-1" d="m214.54,61.18l1.04-1.23c.94.81,1.89,1.27,3.09,1.27,1.06,0,1.74-.5,1.74-1.23v-.03c0-.7-.39-1.08-2.21-1.5-2.08-.5-3.26-1.12-3.26-2.92v-.03c0-1.68,1.4-2.84,3.34-2.84,1.43,0,2.56.43,3.55,1.23l-.92,1.3c-.88-.66-1.76-1.01-2.66-1.01-1.01,0-1.59.52-1.59,1.16v.03c0,.76.45,1.09,2.34,1.54,2.07.5,3.13,1.25,3.13,2.87v.03c0,1.83-1.44,2.92-3.5,2.92-1.5,0-2.91-.52-4.09-1.57Z"/><path class="cls-1" d="m224.16,52.82h3.86c2.29,0,3.72,1.3,3.72,3.27v.03c0,2.2-1.76,3.34-3.92,3.34h-1.94v3.15h-1.72v-9.79Zm3.72,5.09c1.3,0,2.11-.73,2.11-1.75v-.03c0-1.15-.83-1.75-2.11-1.75h-2v3.53h2Z"/><path class="cls-1" d="m233.08,57.74v-.03c0-2.76,2.13-5.06,5.14-5.06s5.11,2.28,5.11,5.04v.03c0,2.76-2.13,5.07-5.14,5.07s-5.11-2.28-5.11-5.04Zm8.44,0v-.03c0-1.9-1.38-3.48-3.33-3.48s-3.3,1.55-3.3,3.46v.03c0,1.9,1.38,3.47,3.33,3.47s3.3-1.54,3.3-3.44Z"/><path class="cls-1" d="m245.41,52.82h1.59l5.25,6.77v-6.77h1.69v9.79h-1.44l-5.4-6.97v6.97h-1.69v-9.79Z"/><path class="cls-1" d="m255.94,61.18l1.04-1.23c.94.81,1.89,1.27,3.09,1.27,1.06,0,1.74-.5,1.74-1.23v-.03c0-.7-.39-1.08-2.21-1.5-2.08-.5-3.26-1.12-3.26-2.92v-.03c0-1.68,1.4-2.84,3.34-2.84,1.43,0,2.56.43,3.55,1.23l-.92,1.3c-.88-.66-1.76-1.01-2.66-1.01-1.01,0-1.59.52-1.59,1.16v.03c0,.76.45,1.09,2.34,1.54,2.07.5,3.13,1.25,3.13,2.87v.03c0,1.83-1.44,2.92-3.5,2.92-1.5,0-2.91-.52-4.09-1.57Z"/><path class="cls-1" d="m269.03,52.75h1.59l4.31,9.86h-1.82l-.99-2.36h-4.63l-1.01,2.36h-1.76l4.31-9.86Zm2.46,5.98l-1.69-3.92-1.68,3.92h3.37Z"/><path class="cls-1" d="m276.62,52.82h4.39c1.12,0,2,.31,2.56.87.43.43.66.97.66,1.62v.03c0,1.18-.67,1.8-1.4,2.18,1.15.39,1.95,1.05,1.95,2.38v.03c0,1.75-1.44,2.69-3.62,2.69h-4.53v-9.79Zm5.89,2.77c0-.77-.62-1.25-1.72-1.25h-2.48v2.6h2.35c1.11,0,1.85-.43,1.85-1.33v-.03Zm-1.47,2.81h-2.73v2.69h2.85c1.18,0,1.89-.46,1.89-1.34v-.03c0-.83-.66-1.32-2.01-1.32Z"/><path class="cls-1" d="m286.81,52.82h1.72v9.79h-1.72v-9.79Z"/><path class="cls-1" d="m291.3,52.82h1.72v8.23h5.15v1.57h-6.87v-9.79Z"/><path class="cls-1" d="m300.06,52.82h1.72v9.79h-1.72v-9.79Z"/><path class="cls-1" d="m306.81,54.41h-3.11v-1.59h7.95v1.59h-3.11v8.2h-1.74v-8.2Z"/><path class="cls-1" d="m313.48,52.82h7.26v1.54h-5.54v2.55h4.91v1.54h-4.91v2.63h5.61v1.54h-7.33v-9.79Zm4.53-2.84l1.54.67-1.79,1.36h-1.32l1.57-2.03Z"/><path class="cls-1" d="m327.41,52.82h3.86c2.29,0,3.72,1.3,3.72,3.27v.03c0,2.2-1.76,3.34-3.92,3.34h-1.94v3.15h-1.72v-9.79Zm3.72,5.09c1.3,0,2.11-.73,2.11-1.75v-.03c0-1.15-.83-1.75-2.11-1.75h-2v3.53h2Z"/><path class="cls-1" d="m336.76,52.82h4.37c1.23,0,2.2.36,2.83.98.52.53.81,1.26.81,2.11v.03c0,1.61-.96,2.57-2.32,2.97l2.64,3.71h-2.04l-2.41-3.41h-2.15v3.41h-1.72v-9.79Zm4.24,4.85c1.23,0,2.01-.64,2.01-1.64v-.03c0-1.05-.76-1.62-2.03-1.62h-2.5v3.29h2.52Z"/><path class="cls-1" d="m346.44,57.74v-.03c0-2.76,2.13-5.06,5.14-5.06s5.11,2.28,5.11,5.04v.03c0,2.76-2.13,5.07-5.14,5.07s-5.11-2.28-5.11-5.04Zm8.44,0v-.03c0-1.9-1.38-3.48-3.33-3.48s-3.3,1.55-3.3,3.46v.03c0,1.9,1.38,3.47,3.33,3.47s3.3-1.54,3.3-3.44Z"/><path class="cls-1" d="m358.78,52.82h7.29v1.57h-5.57v2.67h4.94v1.57h-4.94v3.99h-1.72v-9.79Z"/><path class="cls-1" d="m367.96,52.82h7.26v1.54h-5.54v2.55h4.91v1.54h-4.91v2.63h5.61v1.54h-7.33v-9.79Z"/><path class="cls-1" d="m376.68,61.18l1.04-1.23c.94.81,1.89,1.27,3.09,1.27,1.06,0,1.74-.5,1.74-1.23v-.03c0-.7-.39-1.08-2.21-1.5-2.08-.5-3.26-1.12-3.26-2.92v-.03c0-1.68,1.4-2.84,3.34-2.84,1.43,0,2.56.43,3.55,1.23l-.92,1.3c-.88-.66-1.76-1.01-2.66-1.01-1.01,0-1.59.52-1.59,1.16v.03c0,.76.45,1.09,2.34,1.54,2.07.5,3.13,1.25,3.13,2.87v.03c0,1.83-1.44,2.92-3.5,2.92-1.5,0-2.91-.52-4.09-1.57Z"/><path class="cls-1" d="m385.6,61.18l1.04-1.23c.94.81,1.89,1.27,3.09,1.27,1.06,0,1.74-.5,1.74-1.23v-.03c0-.7-.39-1.08-2.21-1.5-2.08-.5-3.26-1.12-3.26-2.92v-.03c0-1.68,1.4-2.84,3.34-2.84,1.43,0,2.56.43,3.55,1.23l-.92,1.3c-.88-.66-1.76-1.01-2.66-1.01-1.01,0-1.59.52-1.59,1.16v.03c0,.76.45,1.09,2.34,1.54,2.07.5,3.13,1.25,3.13,2.87v.03c0,1.83-1.44,2.92-3.5,2.92-1.5,0-2.91-.52-4.09-1.57Z"/><path class="cls-1" d="m395.32,52.82h1.72v9.79h-1.72v-9.79Z"/><path class="cls-1" d="m399.22,57.74v-.03c0-2.76,2.13-5.06,5.14-5.06s5.11,2.28,5.11,5.04v.03c0,2.76-2.13,5.07-5.14,5.07s-5.11-2.28-5.11-5.04Zm8.44,0v-.03c0-1.9-1.38-3.48-3.33-3.48s-3.3,1.55-3.3,3.46v.03c0,1.9,1.38,3.47,3.33,3.47s3.3-1.54,3.3-3.44Z"/><path class="cls-1" d="m411.63,52.82h1.59l5.25,6.77v-6.77h1.69v9.79h-1.44l-5.4-6.97v6.97h-1.69v-9.79Z"/><path class="cls-1" d="m422.94,52.82h1.59l5.25,6.77v-6.77h1.69v9.79h-1.44l-5.4-6.97v6.97h-1.69v-9.79Z"/><path class="cls-1" d="m434.28,52.82h7.26v1.54h-5.54v2.55h4.91v1.54h-4.91v2.63h5.61v1.54h-7.33v-9.79Z"/><path class="cls-1" d="m443.66,52.82h1.72v8.23h5.15v1.57h-6.87v-9.79Z"/><path class="cls-1" d="m452.32,52.82h1.72v8.23h5.15v1.57h-6.87v-9.79Z"/><path class="cls-1" d="m460.99,52.82h7.26v1.54h-5.54v2.55h4.91v1.54h-4.91v2.63h5.61v1.54h-7.33v-9.79Z"/><path class="cls-1" d="m195.7,69.16h3.65c3.08,0,5.21,2.11,5.21,4.87v.03c0,2.76-2.13,4.9-5.21,4.9h-3.65v-9.79Zm1.72,1.57v6.66h1.93c2.06,0,3.4-1.38,3.4-3.3v-.03c0-1.92-1.34-3.33-3.4-3.33h-1.93Z"/><path class="cls-1" d="m206.65,69.16h7.26v1.54h-5.54v2.55h4.91v1.54h-4.91v2.63h5.61v1.54h-7.33v-9.79Z"/><path class="cls-1" d="m215.37,77.52l1.04-1.23c.94.81,1.89,1.27,3.09,1.27,1.06,0,1.74-.5,1.74-1.23v-.03c0-.7-.39-1.08-2.21-1.5-2.08-.5-3.26-1.12-3.26-2.92v-.03c0-1.68,1.4-2.84,3.34-2.84,1.43,0,2.56.43,3.55,1.23l-.92,1.3c-.88-.66-1.76-1.01-2.66-1.01-1.01,0-1.59.52-1.59,1.16v.03c0,.76.45,1.09,2.34,1.54,2.07.5,3.13,1.25,3.13,2.87v.03c0,1.83-1.44,2.92-3.5,2.92-1.5,0-2.91-.52-4.09-1.57Z"/><path class="cls-1" d="m228.75,74.08v-.03c0-2.78,2.08-5.06,5.05-5.06,1.8,0,2.9.63,3.83,1.52l-1.11,1.27c-.78-.73-1.62-1.22-2.74-1.22-1.86,0-3.23,1.54-3.23,3.46v.03c0,1.92,1.36,3.47,3.23,3.47,1.2,0,1.97-.48,2.81-1.26l1.11,1.12c-1.02,1.06-2.14,1.74-3.97,1.74-2.85,0-4.98-2.22-4.98-5.04Z"/><path class="cls-1" d="m239.52,69.16h3.86c2.29,0,3.72,1.3,3.72,3.27v.03c0,2.2-1.76,3.34-3.92,3.34h-1.94v3.15h-1.72v-9.79Zm3.72,5.09c1.3,0,2.11-.73,2.11-1.75v-.03c0-1.15-.83-1.75-2.11-1.75h-2v3.53h2Z"/><path class="cls-1" d="m251.5,69.09h1.59l4.31,9.86h-1.82l-.99-2.36h-4.63l-1.01,2.36h-1.76l4.31-9.86Zm2.46,5.97l-1.69-3.92-1.68,3.92h3.37Z"/><path class="cls-1" d="m263.39,69.15h1.72v9.8h-1.72v-9.8Z"/><path class="cls-1" d="m267.8,69.15h1.6l5.25,6.78v-6.78h1.7v9.8h-1.44l-5.41-6.98v6.98h-1.7v-9.8Z"/><path class="cls-1" d="m278.14,74.08v-.03c0-2.79,2.09-5.07,5.06-5.07,1.81,0,2.9.63,3.84,1.53l-1.11,1.27c-.78-.73-1.62-1.22-2.75-1.22-1.86,0-3.24,1.54-3.24,3.46v.03c0,1.92,1.36,3.47,3.24,3.47,1.21,0,1.98-.48,2.82-1.26l1.11,1.12c-1.02,1.06-2.14,1.74-3.98,1.74-2.86,0-4.99-2.23-4.99-5.04Z"/><path class="cls-1" d="m288.6,77.02h1.86v1.93h-1.86v-1.93Z"/></g></g></svg>