<?xml version="1.0" encoding="UTF-8"?><svg id="Layer_2" xmlns="http://www.w3.org/2000/svg" viewBox="0 0 340.49 90.09"><defs><style>.cls-1{fill:#fff;}</style></defs><g id="CPA_Signature"><g><path class="cls-1" d="m192.91,41.35v-.03c0-2.79,2.09-5.07,5.06-5.07,1.81,0,2.9.63,3.84,1.53l-1.11,1.27c-.78-.73-1.62-1.22-2.75-1.22-1.86,0-3.24,1.54-3.24,3.46v.03c0,1.92,1.36,3.47,3.24,3.47,1.2,0,1.98-.48,2.82-1.26l1.11,1.12c-1.02,1.06-2.14,1.74-3.98,1.74-2.86,0-4.99-2.23-4.99-5.04Z"/><path class="cls-1" d="m203.68,36.42h3.87c2.3,0,3.73,1.3,3.73,3.28v.03c0,2.2-1.77,3.35-3.92,3.35h-1.95v3.15h-1.72v-9.81Zm3.73,5.1c1.3,0,2.12-.73,2.12-1.75v-.03c0-1.15-.83-1.75-2.12-1.75h-2v3.53h2Z"/><path class="cls-1" d="m215.66,36.35h1.6l4.31,9.88h-1.82l-.99-2.37h-4.64l-1.01,2.37h-1.76l4.31-9.88Zm2.47,5.98l-1.69-3.92-1.68,3.92h3.38Z"/><path class="cls-1" d="m227.45,36.42h3.87c2.3,0,3.73,1.3,3.73,3.28v.03c0,2.2-1.77,3.35-3.92,3.35h-1.95v3.15h-1.72v-9.81Zm3.73,5.1c1.3,0,2.12-.73,2.12-1.75v-.03c0-1.15-.83-1.75-2.12-1.75h-2v3.53h2Z"/><path class="cls-1" d="m236.8,36.42h4.37c1.23,0,2.2.36,2.83.98.52.53.81,1.26.81,2.12v.03c0,1.61-.97,2.58-2.33,2.97l2.65,3.71h-2.04l-2.41-3.42h-2.16v3.42h-1.72v-9.81Zm4.24,4.86c1.23,0,2.02-.64,2.02-1.64v-.03c0-1.05-.76-1.62-2.03-1.62h-2.51v3.29h2.52Z"/><path class="cls-1" d="m246.49,41.35v-.03c0-2.76,2.13-5.07,5.14-5.07s5.11,2.28,5.11,5.04v.03c0,2.76-2.13,5.07-5.14,5.07s-5.11-2.28-5.11-5.04Zm8.45,0v-.03c0-1.9-1.39-3.49-3.33-3.49s-3.31,1.55-3.31,3.46v.03c0,1.91,1.39,3.47,3.33,3.47s3.31-1.54,3.31-3.45Z"/><path class="cls-1" d="m258.82,36.42h7.3v1.57h-5.58v2.68h4.95v1.57h-4.95v3.99h-1.72v-9.81Z"/><path class="cls-1" d="m268.01,36.42h7.27v1.54h-5.55v2.55h4.92v1.54h-4.92v2.63h5.62v1.54h-7.34v-9.81Z"/><path class="cls-1" d="m276.73,44.79l1.04-1.23c.94.81,1.89,1.27,3.1,1.27,1.06,0,1.74-.5,1.74-1.23v-.03c0-.7-.39-1.08-2.21-1.5-2.09-.5-3.26-1.12-3.26-2.93v-.03c0-1.68,1.4-2.84,3.35-2.84,1.43,0,2.56.43,3.56,1.23l-.92,1.3c-.88-.66-1.76-1.01-2.66-1.01-1.01,0-1.6.52-1.6,1.16v.03c0,.76.45,1.09,2.34,1.54,2.07.5,3.14,1.25,3.14,2.87v.03c0,1.83-1.44,2.93-3.5,2.93-1.5,0-2.91-.52-4.09-1.57Z"/><path class="cls-1" d="m285.61,44.79l1.04-1.23c.94.81,1.89,1.27,3.1,1.27,1.06,0,1.74-.5,1.74-1.23v-.03c0-.7-.39-1.08-2.21-1.5-2.09-.5-3.26-1.12-3.26-2.93v-.03c0-1.68,1.4-2.84,3.35-2.84,1.43,0,2.56.43,3.56,1.23l-.92,1.3c-.88-.66-1.76-1.01-2.66-1.01-1.01,0-1.6.52-1.6,1.16v.03c0,.76.45,1.09,2.34,1.54,2.07.5,3.14,1.25,3.14,2.87v.03c0,1.83-1.44,2.93-3.5,2.93-1.5,0-2.91-.52-4.09-1.57Z"/><path class="cls-1" d="m295.32,36.42h1.72v9.81h-1.72v-9.81Z"/><path class="cls-1" d="m299.23,41.35v-.03c0-2.76,2.13-5.07,5.14-5.07s5.11,2.28,5.11,5.04v.03c0,2.76-2.13,5.07-5.14,5.07s-5.11-2.28-5.11-5.04Zm8.45,0v-.03c0-1.9-1.39-3.49-3.33-3.49s-3.31,1.55-3.31,3.46v.03c0,1.91,1.39,3.47,3.33,3.47s3.31-1.54,3.31-3.45Z"/><path class="cls-1" d="m311.56,36.42h1.6l5.25,6.78v-6.78h1.7v9.81h-1.44l-5.41-6.98v6.98h-1.7v-9.81Z"/><path class="cls-1" d="m326.1,36.35h1.6l4.31,9.88h-1.82l-1-2.37h-4.64l-1.01,2.37h-1.77l4.31-9.88Zm2.47,5.98l-1.7-3.92-1.68,3.92h3.38Z"/><path class="cls-1" d="m333.61,36.42h1.72v8.24h5.16v1.57h-6.88v-9.81Z"/><path class="cls-1" d="m193.34,52.76h1.72v8.24h5.15v1.57h-6.88v-9.81Z"/><path class="cls-1" d="m202.11,52.76h1.72v9.81h-1.72v-9.81Z"/><path class="cls-1" d="m209.92,52.69h1.6l4.31,9.88h-1.82l-.99-2.37h-4.64l-1.01,2.37h-1.76l4.31-9.88Zm2.47,5.98l-1.69-3.92-1.68,3.92h3.38Z"/><path class="cls-1" d="m217.51,52.76h4.4c1.12,0,2,.31,2.56.87.43.43.66.97.66,1.62v.03c0,1.18-.67,1.81-1.4,2.19,1.15.39,1.95,1.05,1.95,2.38v.03c0,1.75-1.44,2.69-3.63,2.69h-4.54v-9.81Zm5.9,2.77c0-.77-.62-1.25-1.72-1.25h-2.48v2.61h2.35c1.11,0,1.85-.43,1.85-1.33v-.03Zm-1.47,2.82h-2.73v2.69h2.86c1.18,0,1.89-.46,1.89-1.34v-.03c0-.83-.66-1.32-2.02-1.32Z"/><path class="cls-1" d="m227.7,52.76h1.72v9.81h-1.72v-9.81Z"/><path class="cls-1" d="m232.05,52.76h1.72v8.24h5.16v1.57h-6.88v-9.81Z"/><path class="cls-1" d="m240.82,52.76h1.72v9.81h-1.72v-9.81Z"/><path class="cls-1" d="m247.57,54.35h-3.11v-1.6h7.96v1.6h-3.11v8.21h-1.74v-8.21Z"/><path class="cls-1" d="m257.12,58.69l-3.89-5.94h2.04l2.73,4.33,2.77-4.33h1.98l-3.89,5.9v3.91h-1.74v-3.87Z"/><path class="cls-1" d="m268.25,52.76h3.87c2.3,0,3.73,1.3,3.73,3.28v.03c0,2.2-1.76,3.35-3.92,3.35h-1.95v3.15h-1.72v-9.81Zm3.73,5.1c1.3,0,2.12-.73,2.12-1.75v-.03c0-1.15-.83-1.75-2.12-1.75h-2v3.53h2Z"/><path class="cls-1" d="m277.32,52.76h1.72v8.24h5.16v1.57h-6.88v-9.81Z"/><path class="cls-1" d="m289.18,52.69h1.6l4.31,9.88h-1.82l-1-2.37h-4.64l-1.01,2.37h-1.77l4.31-9.88Zm2.47,5.98l-1.7-3.92-1.68,3.92h3.38Z"/><path class="cls-1" d="m296.34,52.76h1.6l5.25,6.78v-6.78h1.7v9.81h-1.44l-5.41-6.98v6.98h-1.7v-9.81Z"/><path class="cls-1" d="m311.83,52.76h1.72v9.81h-1.72v-9.81Z"/><path class="cls-1" d="m316.24,52.76h1.6l5.25,6.78v-6.78h1.7v9.81h-1.44l-5.41-6.98v6.98h-1.7v-9.81Z"/><path class="cls-1" d="m326.58,57.69v-.03c0-2.79,2.09-5.07,5.06-5.07,1.81,0,2.9.63,3.84,1.53l-1.11,1.27c-.78-.73-1.62-1.22-2.75-1.22-1.86,0-3.24,1.54-3.24,3.46v.03c0,1.92,1.36,3.47,3.24,3.47,1.21,0,1.97-.48,2.82-1.26l1.11,1.12c-1.02,1.06-2.14,1.74-3.98,1.74-2.86,0-4.99-2.23-4.99-5.04Z"/><path class="cls-1" d="m337.04,60.63h1.86v1.93h-1.86v-1.93Z"/></g><g><path class="cls-1" d="m177.89,76.11c-2.33-9.66-9.06-31.87-13.18-39.47-.08-.14-.22-.23-.37-.23h-14.86c-.16,0-.3.09-.38.23-4.02,7.64-10.96,30.22-13.18,39.47,0,.04-.01.07-.01.1v2.23c0,.24.19.42.43.42h11.33c.2,0,.36-.13.4-.33.23-.92.45-1.92.71-2.98.36-1.54.75-3.55,1.17-5.25h13.16c.36,1.51.67,3.32.98,4.74.27,1.25.52,2.43.77,3.49.05.19.22.33.41.33h12.21c.23,0,.43-.19.43-.42v-2.23s0-.06-.01-.1m-25.89-14.76c.58-2.33,4.49-15.26,4.49-15.26h.41s3.72,12.94,4.24,15.26h-9.14Z"/><path class="cls-1" d="m114.51,35.97c-7.4,0-12.79,1.11-14.87,2.14-.13.06-.45.26-.45.58v50.97c0,.24.19.42.43.42h12.09c.23,0,.42-.19.42-.42v-10.8h5.86c11.37,0,16.89-10.08,16.89-21.29,0-14.13-7.17-21.61-20.37-21.61m1.1,33.29h-3.48v-23.35h3.69c5.32,0,6.07,5.82,6.07,11.66s-.75,11.69-6.28,11.69"/><path class="cls-1" d="m81.48,45.92c4.21,0,7.69,3.1,7.69,3.1.03,0,.07.01.11.01h3.72c.23,0,.42-.19.42-.43v-9.32c0-.17-.11-.31-.26-.39-2.43-1.35-8.5-2.93-13.67-2.93-13.44,0-21.14,9.35-21.14,21.67,0,12.32,8.12,21.67,21.14,21.67,5.26,0,11.25-1.64,13.67-2.93.15-.08.26-.23.26-.39v-9.32c0-.23-.19-.43-.42-.43h-3.72s-.07,0-.11.01c0,0-3.47,3.1-7.69,3.1-7.02,0-9.82-5.86-9.82-11.72,0-5.86,2.81-11.72,9.82-11.72"/><g><path class="cls-1" d="m28,45.25c-1.37,0-2.48,1.11-2.48,2.48,0,1.37,1.11,2.47,2.48,2.47s2.48-1.1,2.48-2.47c0-1.37-1.11-2.48-2.48-2.48Zm0,6.27c-1.07,0-1.94.87-1.94,1.94,0,1.07.87,1.94,1.94,1.94s1.94-.87,1.94-1.94-.87-1.94-1.94-1.94Zm6.17-18.51c-.95,0-1.79.41-2.38,1.07-.31-.57-.74-1.05-1.25-1.43.55-.61.88-1.41.88-2.28,0-1.37-.8-2.54-1.96-3.09.94-.52,1.58-1.52,1.58-2.67,0-1.68-1.36-3.04-3.04-3.04s-3.04,1.36-3.04,3.04c0,1.15.64,2.15,1.58,2.67-1.15.55-1.96,1.72-1.96,3.09,0,.88.33,1.68.88,2.28-.52.38-.95.87-1.25,1.43-.58-.65-1.43-1.07-2.38-1.07-1.76,0-3.19,1.43-3.19,3.19,0,1.76,1.43,3.19,3.19,3.19.98,0,1.86-.44,2.44-1.14.31.54.73,1,1.23,1.36-.55.6-.89,1.4-.89,2.27,0,1.86,1.5,3.37,3.36,3.37s3.37-1.51,3.37-3.37c0-.87-.33-1.66-.88-2.26.51-.36.94-.83,1.25-1.37.58.7,1.46,1.14,2.44,1.14,1.76,0,3.19-1.43,3.19-3.19,0-1.76-1.43-3.19-3.19-3.19Zm-6.17,24.83c-.76,0-1.38.62-1.38,1.38s.62,1.38,1.38,1.38,1.38-.62,1.38-1.38c0-.76-.62-1.38-1.38-1.38Zm0,6.11c-.57,0-1.04.47-1.04,1.04,0,.58.47,1.04,1.04,1.04s1.04-.46,1.04-1.04c0-.57-.47-1.04-1.04-1.04Zm12.29-30.39c-1.61,0-2.92,1.31-2.92,2.92,0,1.61,1.31,2.92,2.92,2.92s2.92-1.31,2.92-2.92-1.31-2.92-2.92-2.92Zm-24.57,0c-1.61,0-2.92,1.31-2.92,2.92,0,1.61,1.31,2.92,2.92,2.92s2.92-1.31,2.92-2.92-1.31-2.92-2.92-2.92Z"/><path class="cls-1" d="m28,21.52c1.47,0,2.67-1.19,2.67-2.67s-1.19-2.67-2.67-2.67-2.67,1.19-2.67,2.67,1.19,2.67,2.67,2.67Z"/><path class="cls-1" d="m46.39,34.49c-1.34,0-2.43,1.09-2.43,2.43s1.09,2.43,2.43,2.43,2.43-1.09,2.43-2.43-1.09-2.43-2.43-2.43Z"/><path class="cls-1" d="m12.05,36.92c0-1.34-1.09-2.43-2.43-2.43s-2.43,1.09-2.43,2.43c0,1.35,1.09,2.43,2.43,2.43s2.43-1.09,2.43-2.43Z"/></g><g><path class="cls-1" d="m34.51,22.07c-1.45,0-2.63,1.18-2.63,2.63s1.17,2.63,2.62,2.63,2.63-1.18,2.63-2.63-1.18-2.63-2.63-2.63Z"/><path class="cls-1" d="m34.34,27.62c-1.57,0-2.84,1.27-2.84,2.84s1.27,2.84,2.84,2.84,2.84-1.27,2.84-2.84c0-1.57-1.27-2.84-2.84-2.84Z"/><path class="cls-1" d="m34,39.31c-1.48,0-2.69,1.2-2.69,2.69,0,1.49,1.2,2.69,2.69,2.69s2.69-1.2,2.69-2.69c0-1.49-1.2-2.69-2.69-2.69Z"/><path class="cls-1" d="m33.83,44.92c-1.58,0-2.87,1.29-2.87,2.87,0,1.58,1.28,2.87,2.87,2.87s2.87-1.29,2.87-2.87c0-1.59-1.28-2.87-2.87-2.87Z"/><path class="cls-1" d="m40.63,28.03c-1.49,0-2.7,1.21-2.7,2.7s1.21,2.7,2.7,2.7,2.69-1.21,2.69-2.7-1.2-2.7-2.69-2.7Z"/><path class="cls-1" d="m21.5,22.07c-1.45,0-2.63,1.18-2.63,2.63s1.17,2.63,2.62,2.63,2.63-1.18,2.63-2.63-1.18-2.63-2.63-2.63Z"/><path class="cls-1" d="m21.67,27.62c-1.57,0-2.84,1.27-2.84,2.84,0,1.57,1.27,2.84,2.84,2.84s2.84-1.27,2.84-2.84c0-1.57-1.27-2.84-2.84-2.84Z"/><path class="cls-1" d="m22.01,39.31c-1.49,0-2.69,1.2-2.69,2.69,0,1.49,1.2,2.69,2.69,2.69s2.69-1.2,2.69-2.69c0-1.49-1.21-2.69-2.69-2.69Z"/><path class="cls-1" d="m22.18,44.92c-1.59,0-2.87,1.29-2.87,2.87,0,1.58,1.28,2.87,2.87,2.87s2.87-1.29,2.87-2.87c0-1.59-1.29-2.87-2.87-2.87Z"/><path class="cls-1" d="m15.38,28.03c-1.49,0-2.7,1.21-2.7,2.7s1.21,2.7,2.7,2.7,2.7-1.21,2.7-2.7-1.21-2.7-2.7-2.7Z"/><path class="cls-1" d="m21.33,21.48c1.4,0,2.53-1.13,2.53-2.53s-1.13-2.53-2.53-2.53-2.53,1.13-2.53,2.53,1.13,2.53,2.53,2.53Z"/><path class="cls-1" d="m13.66,42.26c0,1.33,1.08,2.41,2.41,2.41s2.41-1.08,2.41-2.41-1.08-2.41-2.41-2.41-2.41,1.08-2.41,2.41Z"/><path class="cls-1" d="m34.68,21.48c1.4,0,2.53-1.13,2.53-2.53,0-1.4-1.13-2.53-2.53-2.53s-2.53,1.13-2.53,2.53,1.13,2.53,2.53,2.53Z"/><path class="cls-1" d="m28,15.45c1.32,0,2.39-1.07,2.39-2.39,0-1.32-1.07-2.39-2.39-2.39s-2.39,1.07-2.39,2.39,1.07,2.39,2.39,2.39Z"/><path class="cls-1" d="m39.95,44.67c1.33,0,2.41-1.08,2.41-2.41,0-1.33-1.08-2.41-2.41-2.41s-2.41,1.08-2.41,2.41c0,1.33,1.08,2.41,2.41,2.41Z"/></g><g><path class="cls-1" d="m16.74,52.16c-.9,0-1.63.73-1.63,1.63,0,.9.73,1.63,1.63,1.63s1.63-.73,1.63-1.63c0-.9-.73-1.63-1.63-1.63Z"/><path class="cls-1" d="m3.85,26.13c0-.93-.75-1.68-1.67-1.68s-1.67.75-1.67,1.68c0,.92.75,1.67,1.67,1.67s1.67-.75,1.67-1.67Z"/><path class="cls-1" d="m8.1,21.36c.9,0,1.62-.73,1.62-1.62,0-.9-.73-1.62-1.62-1.62s-1.62.73-1.62,1.62.73,1.62,1.62,1.62Z"/><path class="cls-1" d="m1.5,21.9c.83,0,1.49-.67,1.49-1.49s-.67-1.5-1.49-1.5S0,19.58,0,20.4s.67,1.49,1.5,1.49Z"/><path class="cls-1" d="m34.85,15.17c1.11,0,2.02-.9,2.02-2.02,0-1.12-.91-2.02-2.02-2.02s-2.02.91-2.02,2.02c0,1.12.9,2.02,2.02,2.02Z"/><path class="cls-1" d="m21.16,15.17c1.11,0,2.02-.9,2.02-2.02,0-1.12-.9-2.02-2.02-2.02s-2.02.91-2.02,2.02.9,2.02,2.02,2.02Z"/><path class="cls-1" d="m28,3.1c.86,0,1.55-.69,1.55-1.55,0-.85-.69-1.55-1.55-1.55s-1.55.7-1.55,1.55c0,.86.69,1.55,1.55,1.55Z"/><path class="cls-1" d="m35.02,8.87c.81,0,1.47-.66,1.47-1.47,0-.81-.66-1.47-1.47-1.47s-1.47.66-1.47,1.47c0,.81.66,1.47,1.47,1.47Z"/><path class="cls-1" d="m20.99,8.87c.81,0,1.47-.66,1.47-1.47,0-.81-.66-1.47-1.47-1.47s-1.47.66-1.47,1.47.66,1.47,1.47,1.47Z"/><path class="cls-1" d="m54.51,21.9c.82,0,1.5-.67,1.5-1.49s-.67-1.5-1.5-1.5-1.49.67-1.49,1.5.67,1.49,1.49,1.49Z"/><path class="cls-1" d="m44.86,53.02c-.66,0-1.19.53-1.19,1.19s.53,1.19,1.19,1.19,1.19-.53,1.19-1.19-.53-1.19-1.19-1.19Z"/><path class="cls-1" d="m37.63,53.79c0,.9.73,1.63,1.64,1.63s1.63-.73,1.63-1.63c0-.9-.73-1.63-1.63-1.63s-1.64.73-1.64,1.63Z"/><path class="cls-1" d="m53.84,24.45c-.92,0-1.67.75-1.67,1.68,0,.92.75,1.67,1.67,1.67s1.68-.75,1.68-1.67c0-.93-.75-1.68-1.68-1.68Z"/><path class="cls-1" d="m47.41,23.19c-1.25,0-2.26,1.01-2.26,2.26,0,1.25,1.01,2.26,2.26,2.26s2.26-1.01,2.26-2.26c0-1.25-1.01-2.26-2.26-2.26Z"/><path class="cls-1" d="m11.15,53.02c-.66,0-1.19.53-1.19,1.19s.53,1.19,1.19,1.19,1.19-.53,1.19-1.19-.53-1.19-1.19-1.19Z"/><path class="cls-1" d="m47.91,21.36c.89,0,1.62-.73,1.62-1.62s-.73-1.62-1.62-1.62-1.62.73-1.62,1.62.72,1.62,1.62,1.62Z"/><path class="cls-1" d="m8.6,27.72c1.25,0,2.26-1.01,2.26-2.26,0-1.25-1.01-2.26-2.26-2.26s-2.26,1.01-2.26,2.26c0,1.25,1.01,2.26,2.26,2.26Z"/></g><g><path class="cls-1" d="m16.41,45.95c-1.17,0-2.13.95-2.13,2.12s.95,2.13,2.13,2.13,2.12-.95,2.12-2.12-.95-2.12-2.12-2.12Z"/><path class="cls-1" d="m15.04,27.11c1.18,0,2.13-.95,2.13-2.13s-.95-2.13-2.13-2.13-2.13.95-2.13,2.13.95,2.13,2.13,2.13Z"/><path class="cls-1" d="m3.52,36.13c-.78,0-1.42.64-1.42,1.42s.64,1.42,1.42,1.42,1.42-.64,1.42-1.42-.64-1.42-1.42-1.42Z"/><path class="cls-1" d="m28,9.27c1.09,0,1.97-.88,1.97-1.97,0-1.09-.88-1.97-1.97-1.97s-1.97.88-1.97,1.97.88,1.97,1.97,1.97Z"/><path class="cls-1" d="m45.88,40.86c-1.02,0-1.84.83-1.84,1.84s.82,1.84,1.84,1.84,1.84-.82,1.84-1.84-.82-1.84-1.84-1.84Z"/><path class="cls-1" d="m46.9,28.77c-1.34,0-2.42,1.08-2.42,2.42s1.08,2.42,2.42,2.42,2.42-1.09,2.42-2.42c0-1.34-1.08-2.42-2.42-2.42Z"/><path class="cls-1" d="m52.49,36.13c-.79,0-1.42.64-1.42,1.42s.64,1.42,1.42,1.42,1.42-.64,1.42-1.42-.64-1.42-1.42-1.42Z"/><path class="cls-1" d="m40.96,27.11c1.17,0,2.13-.95,2.13-2.13s-.95-2.13-2.13-2.13-2.13.95-2.13,2.13.95,2.13,2.13,2.13Z"/><path class="cls-1" d="m11.97,42.7c0-1.02-.83-1.84-1.84-1.84s-1.84.83-1.84,1.84.83,1.84,1.84,1.84,1.84-.82,1.84-1.84Z"/><path class="cls-1" d="m9.11,33.62c1.34,0,2.42-1.09,2.42-2.42s-1.08-2.42-2.42-2.42-2.42,1.08-2.42,2.42,1.09,2.42,2.42,2.42Z"/><path class="cls-1" d="m39.6,50.2c1.17,0,2.12-.95,2.12-2.12s-.95-2.12-2.12-2.12-2.13.95-2.13,2.12.95,2.13,2.12,2.13Z"/></g></g></g></svg>